# xmcd
#
# Track frame offsets:
#	150
#	12796
#	29075
#	44037
#	55924
#	69944
#	86556
#	102837
#	116289
#	129178
#	144284
#	157490
#	167490
#	183492
#	194404
#
# Disc length: 2816 seconds
#
# Revision: 0
# Processed by: cddbd v1.5.2PL0 Copyright (c) Steve Scherf et al.
# Submitted via: audiograbber 1.83.01
#
DISCID=cb0afe0f
DTITLE=John Williamson - We Love This Country
DYEAR=2005
DGENRE=Country
TTITLE0=We Love This Country
TTITLE1=Campfire On The Road
TTITLE2=On The Improve
TTITLE3=Wobbly Boot Hotel
TTITLE4=Cape York Peninsula
TTITLE5=Vegie Bill
TTITLE6=Welcome All To Broome
TTITLE7=Singing In The Rain
TTITLE8=Alice Springs
TTITLE9=You Come Back To Tassie
TTITLE10=Bush Telegraph
TTITLE11=Pickin' On Murray
TTITLE12=Around Jindabyne
TTITLE13=Beachcomber From Wollongong
TTITLE14=Old Farts In Caravan Parks
EXTD=
EXTT0=
EXTT1=
EXTT2=
EXTT3=
EXTT4=
EXTT5=
EXTT6=
EXTT7=
EXTT8=
EXTT9=
EXTT10=
EXTT11=
EXTT12=
EXTT13=
EXTT14=
PLAYORDER=
